<?xml version="1.0" standalone="no"?><!DOCTYPE svg PUBLIC "-//W3C//DTD SVG 1.1//EN" "http://www.w3.org/Graphics/SVG/1.1/DTD/svg11.dtd"><svg t="1778237721137" class="icon" viewBox="0 0 1024 1024" version="1.1" xmlns="http://www.w3.org/2000/svg" p-id="182199" xmlns:xlink="http://www.w3.org/1999/xlink" width="200" height="200"><path d="M891.259259 967.111111H132.740741c-41.813333 0-75.851852-34.038519-75.851852-75.851852V132.740741c0-41.813333 34.038519-75.851852 75.851852-75.851852h758.518518c41.813333 0 75.851852 34.038519 75.851852 75.851852v142.222222c0 15.739259-12.705185 28.444444-28.444444 28.444444s-28.444444-12.705185-28.444445-28.444444V132.740741c0-10.42963-8.533333-18.962963-18.962963-18.962963H132.740741c-10.42963 0-18.962963 8.533333-18.962963 18.962963v758.518518c0 10.42963 8.533333 18.962963 18.962963 18.962963h758.518518c10.42963 0 18.962963-8.533333 18.962963-18.962963V512c0-15.739259 12.705185-28.444444 28.444445-28.444444s28.444444 12.705185 28.444444 28.444444v379.259259c0 41.813333-34.038519 75.851852-75.851852 75.851852z" p-id="182200" fill="#7a7e92"></path><path d="M310.708148 480.995556c-7.300741 0-14.601481-2.74963-20.100741-8.343704L193.042963 375.087407c-11.093333-11.093333-11.093333-29.108148 0-40.201481s29.108148-11.093333 40.201481 0l77.842963 77.842963 164.21926-158.151111c11.282963-10.903704 29.297778-10.524444 40.201481 0.758518s10.524444 29.297778-0.758518 40.201482L330.42963 473.031111c-5.499259 5.30963-12.61037 7.964444-19.721482 7.964445zM322.37037 789.333333c-67.982222 0-123.259259-55.277037-123.259259-123.259259s55.277037-123.259259 123.259259-123.259259 123.259259 55.277037 123.25926 123.259259-55.277037 123.259259-123.25926 123.259259z m0-189.629629c-36.598519 0-66.37037 29.771852-66.37037 66.37037s29.771852 66.37037 66.37037 66.37037 66.37037-29.771852 66.370371-66.37037-29.771852-66.37037-66.370371-66.37037zM832 410.074074h-284.444444c-15.739259 0-28.444444-12.705185-28.444445-28.444444s12.705185-28.444444 28.444445-28.444445h284.444444c15.739259 0 28.444444 12.705185 28.444444 28.444445s-12.705185 28.444444-28.444444 28.444444zM832 682.666667h-284.444444c-15.739259 0-28.444444-12.705185-28.444445-28.444445s12.705185-28.444444 28.444445-28.444444h284.444444c15.739259 0 28.444444 12.705185 28.444444 28.444444s-12.705185 28.444444-28.444444 28.444445z" p-id="182201" fill="#7a7e92"></path></svg>