<?xml version="1.0" standalone="no"?><!DOCTYPE svg PUBLIC "-//W3C//DTD SVG 1.1//EN" "http://www.w3.org/Graphics/SVG/1.1/DTD/svg11.dtd"><svg t="1778498985038" class="icon" viewBox="0 0 1024 1024" version="1.1" xmlns="http://www.w3.org/2000/svg" p-id="13514" xmlns:xlink="http://www.w3.org/1999/xlink" width="200" height="200"><path d="M512 896a85.333333 85.333333 0 1 0 0-170.666667 85.333333 85.333333 0 0 0 0 170.666667z m42.666667-250.624A170.752 170.752 0 0 1 512 981.333333a170.666667 170.666667 0 0 1-42.666667-335.957333V554.666667H298.666667a128 128 0 0 1-128-128V378.624A170.752 170.752 0 0 1 213.333333 42.666667a170.666667 170.666667 0 0 1 42.666667 335.957333V426.666667a42.666667 42.666667 0 0 0 42.666667 42.666666h426.666666a42.666667 42.666667 0 0 0 42.666667-42.666666V378.624A170.752 170.752 0 0 1 810.666667 42.666667a170.666667 170.666667 0 0 1 42.666666 335.957333V426.666667a128 128 0 0 1-128 128h-170.666666v90.709333zM213.205333 298.666667h0.256a85.333333 85.333333 0 1 0-0.256 0zM810.666667 298.666667a85.333333 85.333333 0 1 0 0-170.666667 85.333333 85.333333 0 0 0 0 170.666667z" fill="#8b90a1" p-id="13515"></path></svg>