<?xml version="1.0" standalone="no"?><!DOCTYPE svg PUBLIC "-//W3C//DTD SVG 1.1//EN" "http://www.w3.org/Graphics/SVG/1.1/DTD/svg11.dtd"><svg t="1778237072238" class="icon" viewBox="0 0 1024 1024" version="1.1" xmlns="http://www.w3.org/2000/svg" p-id="148676" xmlns:xlink="http://www.w3.org/1999/xlink" width="200" height="200"><path d="M161.6896 658.944A378.88 378.88 0 0 0 321.6384 839.68V515.8912L177.0496 650.8544a33.8944 33.8944 0 0 1-15.36 8.0896z m-20.48-65.536l218.5216-203.776H152.3712a375.296 375.296 0 0 0-20.48 122.88 380.3136 380.3136 0 0 0 8.9088 81.408z m314.7776-203.776a35.7376 35.7376 0 0 1-5.3248 6.4512l-64.7168 60.3136a32.8704 32.8704 0 0 1 2.7648 13.5168V552.96a33.9968 33.9968 0 0 1 10.24 7.2704l70.0416 73.6256H563.2l71.68-75.9808v-99.84l-71.68-69.632a33.792 33.792 0 0 1-9.1136 1.2288zM388.3008 870.4a380.8256 380.8256 0 0 0 220.3648 6.9632L388.4032 646.0416V869.9904zM675.84 851.968a379.4944 379.4944 0 0 0 161.6896-151.3472H532.48L670.1056 844.8a35.6352 35.6352 0 0 1 5.2224 7.168z m191.8976-218.0096a373.5552 373.5552 0 0 0 20.48-121.856 378.2656 378.2656 0 0 0-16.1792-109.8752L654.7456 633.856h212.992z m-685.056-311.0912h314.0608L351.1296 180.224a31.8464 31.8464 0 0 1-6.144-8.192 378.88 378.88 0 0 0-162.2016 150.9376z m229.6832-175.9232L634.88 364.6464V161.1776a37.4784 37.4784 0 0 1 0-5.8368 378.88 378.88 0 0 0-222.6176-8.3968z m288.8704 296.96v42.8032l140.0832-149.6064a26.7264 26.7264 0 0 1 2.4576-2.3552 380.416 380.416 0 0 0-142.5408-148.6848v257.8432zM509.952 956.6208A444.6208 444.6208 0 1 1 954.5728 512 444.5184 444.5184 0 0 1 509.952 956.6208z m0 0" p-id="148677" fill="#3475fc"></path></svg>