<?xml version="1.0" standalone="no"?><!DOCTYPE svg PUBLIC "-//W3C//DTD SVG 1.1//EN" "http://www.w3.org/Graphics/SVG/1.1/DTD/svg11.dtd"><svg t="1778237100001" class="icon" viewBox="0 0 1024 1024" version="1.1" xmlns="http://www.w3.org/2000/svg" xmlns:xlink="http://www.w3.org/1999/xlink" width="200" height="200"><path d="M512 128c-176.48 0-320 143.52-320 320 0 176.48 143.52 320 320 320s320-143.52 320-320c0-176.48-143.52-320-320-320z m0 576c-141.44 0-256-114.56-256-256s114.56-256 256-256 256 114.56 256 256-114.56 256-256 256z" p-id="156101" fill="#9c27b0"></path><path d="M576 416l-128 128-128-128 128-128z" p-id="156102" fill="#9c27b0"></path><path d="M480 480l-96 96-96-96 96-96z" p-id="156103" fill="#9c27b0"></path><circle cx="512" cy="320" r="32" fill="#9c27b0" p-id="156104"></circle></svg>
